<?xml version="1.0" standalone="no"?><!DOCTYPE svg PUBLIC "-//W3C//DTD SVG 1.1//EN" "http://www.w3.org/Graphics/SVG/1.1/DTD/svg11.dtd"><svg t="1668851468848" class="icon" viewBox="0 0 1260 1024" version="1.1" xmlns="http://www.w3.org/2000/svg" p-id="8492" width="221.484375" height="180" xmlns:xlink="http://www.w3.org/1999/xlink"><path d="M637.489823 946.3561c10.456973-6.971316 20.913947-14.378339 30.935214-22.656775a418.278939 418.278939 0 0 0-223.517809-389.522263A417.843232 417.843232 0 0 0 0.485855 595.611781a417.407525 417.407525 0 0 0 222.646394 389.522263 381.679532 381.679532 0 0 0 187.789816 38.342236z" fill="#A9C754" p-id="8493"></path><path d="M877.564506 1023.47628A358.587049 358.587049 0 0 0 1002.612481 1002.126626a396.929285 396.929285 0 0 0 256.19585-339.851639 396.057871 396.057871 0 0 0-411.307623-110.669636 395.622164 395.622164 0 0 0-255.324436 331.573201z" fill="#809E54" p-id="8494"></path><path d="M855.779145 1023.47628a537.66272 537.66272 0 1 0-463.156784 0z" fill="#96B54A" p-id="8495"></path><path d="M312.452231 182.997036A553.783888 553.783888 0 0 0 566.905252 615.654314a517.18448 517.18448 0 0 0 126.355097 55.334818h-77.991594a522.848674 522.848674 0 0 1-151.626116-104.569735 540.276963 540.276963 0 0 1-155.111773-383.422361z" fill="#A9C754" p-id="8496"></path><path d="M884.971529 105.441149a553.34818 553.34818 0 0 1-256.19585 432.657278 514.13453 514.13453 0 0 1-126.355096 55.770526h79.734422a522.848674 522.848674 0 0 0 151.626116-105.005443 540.276963 540.276963 0 0 0 154.676066-382.986653z" fill="#C9E35E" p-id="8497"></path><path d="M680.189132 1023.911987c14.814046-3.921365 30.063799-8.714145 43.570723-13.942631a512.391701 512.391701 0 0 0-104.134028-539.405549A511.955994 511.955994 0 0 0 80.220278 365.558365a511.084579 511.084579 0 0 0 104.569735 539.841256 468.385271 468.385271 0 0 0 202.603861 118.512366z" fill="#809E54" p-id="8498"></path><path d="M137.733632 470.999514A553.34818 553.34818 0 0 0 392.622361 903.656792 510.648872 510.648872 0 0 0 520.720286 958.555903h-79.734423a520.234431 520.234431 0 0 1-152.061822-104.569735 540.712671 540.712671 0 0 1-154.676067-383.422361z" fill="#A9C754" p-id="8499"></path><path d="M892.378552 1023.911987A519.798724 519.798724 0 0 0 1046.183204 918.906545c155.547481-155.111773 193.018302-389.086555 117.205244-603.018804-213.496542-76.248765-447.471324-39.213651-603.454511 116.769537A570.776469 570.776469 0 0 0 436.193084 1023.911987z" fill="#A9C754" p-id="8500"></path><path d="M1077.989832 511.955994a553.34818 553.34818 0 0 1-256.195851 432.657278 514.570237 514.570237 0 0 1-126.355096 57.513354h79.734423a522.848674 522.848674 0 0 0 151.626115-105.005442 540.712671 540.712671 0 0 0 154.676066-382.986654z" fill="#C9E35E" p-id="8501"></path></svg>